<svg width="131" height="131" xmlns="http://www.w3.org/2000/svg" xmlns:xlink="http://www.w3.org/1999/xlink" xmlns:svgjs="http://svgjs.com/svgjs" viewBox="1184 3319 131 131"><svg width="131" height="131" xmlns="http://www.w3.org/2000/svg" xmlns:xlink="http://www.w3.org/1999/xlink" xmlns:svgjs="http://svgjs.com/svgjs" fill="none" stroke-miterlimit="100" stroke="#fff" stroke-width="2" opacity=".4" x="1184" y="3319"><svg xmlns="http://www.w3.org/2000/svg" xmlns:xlink="http://www.w3.org/1999/xlink" width="131" height="131" viewBox="2 2 130 130"><path paint-order="stroke fill markers" d="M67 2c35.898 0 65 29.101 65 65 0 35.898-29.102 65-65 65C31.1 132 2 102.898 2 67 2 31.1 31.101 2 67 2z"/></svg></svg><svg width="41" height="39" xmlns="http://www.w3.org/2000/svg" xmlns:xlink="http://www.w3.org/1999/xlink" xmlns:svgjs="http://svgjs.com/svgjs" viewBox="0 0.035 41 38.93" fill="#fff" x="1230" y="3365"><svg xmlns="http://www.w3.org/2000/svg" width="41" height="39" viewBox="1.986 1.005 40.01 37.99"><path paint-order="stroke fill markers" fill-rule="evenodd" d="M21.898 23.87c-6.922 0-12.554-6.068-12.554-13.525V2.271c0-.7.562-1.266 1.256-1.266h22.593a1.26 1.26 0 0 1 1.256 1.266v8.074c0 7.457-5.63 13.524-12.55 13.524zM11.857 3.537v6.807c0 6.06 4.504 10.99 10.041 10.99 5.535 0 10.038-4.93 10.038-10.99V3.538h-20.08zm10.028 31.605a1.261 1.261 0 0 1-1.256-1.267V23.39c0-.7.562-1.267 1.256-1.267a1.26 1.26 0 0 1 1.256 1.267v10.487c0 .7-.562 1.267-1.256 1.267zm5.139.013H16.869a1.26 1.26 0 0 1-1.256-1.266c0-.7.562-1.267 1.256-1.267h10.155a1.26 1.26 0 0 1 1.256 1.267c0 .7-.562 1.266-1.256 1.266zm3.753 3.839H13.115a1.26 1.26 0 0 1-1.256-1.267c0-.7.562-1.266 1.256-1.266h17.662a1.26 1.26 0 0 1 1.256 1.266c0 .7-.562 1.267-1.256 1.267zm2.701-24.056a1.26 1.26 0 0 1-1.256-1.266c0-.7.562-1.267 1.256-1.267 2.23 0 3.853-.607 4.827-1.805 1.113-1.365 1.225-3.38 1.168-4.532h-5.785a1.26 1.26 0 0 1-1.256-1.267c0-.7.562-1.266 1.256-1.266h6.909c.596 0 1.111.423 1.23 1.011.037.184.88 4.622-1.566 7.646-1.475 1.822-3.756 2.746-6.783 2.746zm-22.973 0c-3.026 0-5.308-.924-6.783-2.746C1.276 9.17 2.12 4.731 2.156 4.547a1.258 1.258 0 0 1 1.23-1.011h6.909a1.26 1.26 0 0 1 1.256 1.266c0 .7-.562 1.267-1.256 1.267H4.51c-.056 1.152.055 3.167 1.168 4.532.974 1.198 2.598 1.805 4.827 1.805a1.26 1.26 0 0 1 1.256 1.267c0 .7-.562 1.266-1.256 1.266z"/></svg></svg></svg>