<svg width="131" height="131" xmlns="http://www.w3.org/2000/svg" xmlns:xlink="http://www.w3.org/1999/xlink" xmlns:svgjs="http://svgjs.com/svgjs" viewBox="284 3319 131 131"><svg width="131" height="131" xmlns="http://www.w3.org/2000/svg" xmlns:xlink="http://www.w3.org/1999/xlink" xmlns:svgjs="http://svgjs.com/svgjs" fill="none" stroke-miterlimit="100" stroke="#fff" stroke-width="2" opacity=".4" x="284" y="3319"><svg xmlns="http://www.w3.org/2000/svg" xmlns:xlink="http://www.w3.org/1999/xlink" width="131" height="131" viewBox="2 2 130 130"><path paint-order="stroke fill markers" d="M67 2c35.898 0 65 29.101 65 65 0 35.898-29.102 65-65 65-35.899 0-65-29.102-65-65C2 31.1 31.1 2 67 2z"/></svg></svg><svg width="41" height="41" xmlns="http://www.w3.org/2000/svg" xmlns:xlink="http://www.w3.org/1999/xlink" xmlns:svgjs="http://svgjs.com/svgjs" fill="#fff" x="329" y="3364"><svg xmlns="http://www.w3.org/2000/svg" width="41" height="41" viewBox="1.8 1.799 38.4 38.4"><path paint-order="stroke fill markers" fill-rule="evenodd" d="M21 4.2c9.264 0 16.8 7.536 16.8 16.8 0 9.263-7.536 16.837-16.8 16.837-9.264 0-16.8-7.574-16.8-16.837 0-9.264 7.536-16.8 16.8-16.8 9.264 0 0 0 0 0m0-2.4C10.396 1.8 1.8 10.395 1.8 21S10.396 40.2 21 40.2 40.2 31.603 40.2 21 31.604 1.8 21 1.8zm0 6A1.2 1.2 0 0 1 22.2 9v12a1.2 1.2 0 0 1-2.4 0V9A1.2 1.2 0 0 1 21 7.8zm6.864 20.074a1.2 1.2 0 0 1-1.697 0l-5.94-5.94a1.2 1.2 0 0 1 1.697-1.697l5.94 5.94a1.2 1.2 0 0 1 0 1.697z"/></svg></svg></svg>