<svg width="24" height="17" xmlns="http://www.w3.org/2000/svg" xmlns:xlink="http://www.w3.org/1999/xlink" xmlns:svgjs="http://svgjs.com/svgjs" viewBox="0 0.152 24 16.696" fill="#0eb493"><svg xmlns="http://www.w3.org/2000/svg" width="24" height="17" viewBox="2 1.011 23 16"><path paint-order="stroke fill markers" fill-rule="evenodd" d="M23.203 2.465c.397 0 .36-.037.36.364v11.636c0 .402.037 1.091-.36 1.091H4.516c-.397 0-1.079-.69-1.079-1.09V2.828c0-.401.682-.364 1.079-.364H23.203m0-1.454H4.516C3.325 1.01 2 1.624 2 2.829v11.636c0 1.206 1.325 2.546 2.516 2.546h18.687c1.191 0 1.797-1.34 1.797-2.546V2.83c0-1.205-.606-1.818-1.797-1.818zM13.5 11.988a.711.711 0 0 1-.47-.178L2.247 3.083a.734.734 0 0 1-.073-1.026.713.713 0 0 1 1.014-.073l10.31 8.314L23.81 1.984a.714.714 0 0 1 1.014.073.734.734 0 0 1-.072 1.026L13.971 11.81a.711.711 0 0 1-.471.178z"/></svg></svg>