<svg width="131" height="131" xmlns="http://www.w3.org/2000/svg" xmlns:xlink="http://www.w3.org/1999/xlink" xmlns:svgjs="http://svgjs.com/svgjs" viewBox="585 3319 131 131"><svg width="131" height="131" xmlns="http://www.w3.org/2000/svg" xmlns:xlink="http://www.w3.org/1999/xlink" xmlns:svgjs="http://svgjs.com/svgjs" fill="none" stroke-miterlimit="100" stroke="#fff" stroke-width="2" opacity=".4" x="585" y="3319"><svg xmlns="http://www.w3.org/2000/svg" xmlns:xlink="http://www.w3.org/1999/xlink" width="131" height="131" viewBox="2 2 130 130"><path paint-order="stroke fill markers" d="M67 2c35.898 0 65 29.101 65 65 0 35.898-29.102 65-65 65C31.1 132 2 102.898 2 67 2 31.1 31.101 2 67 2z"/></svg></svg><svg width="39" height="39" xmlns="http://www.w3.org/2000/svg" xmlns:xlink="http://www.w3.org/1999/xlink" xmlns:svgjs="http://svgjs.com/svgjs" fill="#fff" x="631" y="3365"><svg xmlns="http://www.w3.org/2000/svg" width="39" height="39" viewBox="2 2 38 38"><path paint-order="stroke fill markers" fill-rule="evenodd" d="M16.898 10.317c3.43 0 6.468 2.894 6.468 4.639v5.01c0 1.857-.578 5.406-2.627 7.016a2.376 2.376 0 0 0-.899 2.064 2.377 2.377 0 0 0 1.23 1.885l7.476 4.137c.066.036.15.075.219.105.175.075.39.199.549.307v2.147H4.374v-2.121a3.85 3.85 0 0 1 .597-.354c.056-.025.111-.052.165-.082l7.67-4.155a2.372 2.372 0 0 0 .353-3.937c-1.99-1.595-2.844-5.128-2.844-7.013v-5.01c0-1.703 3.216-4.638 6.583-4.638 3.368 0 0 0 0 0m0-2.373c-4.43 0-8.958 3.695-8.958 7.012v5.01c0 2.188.926 6.614 3.734 8.863l-7.67 4.156S2 33.877 2 34.989v3.007C2 39.102 2.899 40 4.004 40h25.68a2.006 2.006 0 0 0 2.005-2.004v-3.007c0-1.18-2.005-2.004-2.005-2.004l-7.477-4.137c2.779-2.184 3.534-6.477 3.534-8.883v-5.01c0-3.316-4.412-7.01-8.843-7.01zm21.097 19.134l-7.588-4.138c2.779-2.184 3.645-6.476 3.645-8.882v-5.01C34.052 5.732 29.529 2 25.098 2c-2.88 0-5.824 1.564-7.538 3.567.978.06 2.055.061 2.986.358a7.394 7.394 0 0 1 4.552-1.553c3.43 0 6.579 2.932 6.579 4.676v5.01c0 1.858-.689 5.407-2.738 7.017a2.375 2.375 0 0 0-.899 2.064 2.376 2.376 0 0 0 1.23 1.885l7.587 4.137c.066.035.15.075.22.105.174.074.39.198.548.307v2.11h-4.794c.724.545.943 1.326 1.223 2.372h3.94A2.006 2.006 0 0 0 40 32.051v-2.97c0-1.179-2.005-2.003-2.005-2.003z"/></svg></svg></svg>